# xmcd CD database file
#
# Track frame offsets:
#	150
#	22700
#	41030
#	60842
#	83945
#	107835
#	130177
#	148472
#
# Disc length: 2211 seconds
#
# Revision: 3
# Processed by: cddbd v1.5.2PL0 Copyright (c) Steve Scherf et al.
# Submitted via: CDex 1.51
#
DISCID=6608a108
DTITLE=Lightnin' Hopkins - Last Night Blues
DYEAR=1960
DGENRE=Blues
TTITLE0=Rocky Mountain
TTITLE1=Got To Move Your Baby
TTITLE2=So Sorry To Leave You
TTITLE3=Take A Trip With Me
TTITLE4=Last Night Blues
TTITLE5=Lightnin' Stroke
TTITLE6=Hard To Love A Woman
TTITLE7=Conversation Blues (Voc =Sonny Terry)
EXTD=YEAR: 1960
EXTT0=
EXTT1=
EXTT2=
EXTT3=
EXTT4=
EXTT5=
EXTT6=
EXTT7=
PLAYORDER=
